<svg width="40" height="40" viewBox="0 0 40 40" fill="none" xmlns="http://www.w3.org/2000/svg">
<path d="M20.0002 21.6666V34.9999M20.0002 21.6666L13.3336 28.3333M20.0002 21.6666L26.6669 28.3333M6.66691 24.8316C5.42864 23.5665 4.49452 22.0361 3.9353 20.3565C3.37607 18.6769 3.20642 16.892 3.43917 15.1371C3.67193 13.3822 4.301 11.7033 5.27873 10.2275C6.25646 8.75173 7.55721 7.51781 9.08246 6.6192C10.6077 5.7206 12.3175 5.18087 14.0822 5.04092C15.8469 4.90096 17.6204 5.16443 19.2682 5.81139C20.916 6.45834 22.395 7.4718 23.5931 8.77501C24.7913 10.0782 25.6771 11.637 26.1836 13.3333H29.1669C30.7761 13.3331 32.3427 13.8505 33.6352 14.809C34.9278 15.7675 35.8778 17.1164 36.3449 18.6563C36.8119 20.1962 36.7714 21.8455 36.2291 23.3606C35.6869 24.8756 34.6717 26.1761 33.3336 27.07" stroke="#888888" stroke-width="2.5" stroke-linecap="round" stroke-linejoin="round"/>
</svg>
