<svg width="30" height="30" viewBox="0 0 30 30" fill="none" xmlns="http://www.w3.org/2000/svg">
<path d="M24.9995 12.5C24.9995 18.7413 18.0758 25.2412 15.7508 27.2487C15.5342 27.4116 15.2705 27.4997 14.9995 27.4997C14.7285 27.4997 14.4649 27.4116 14.2483 27.2487C11.9233 25.2412 4.99951 18.7413 4.99951 12.5C4.99951 9.84784 6.05308 7.3043 7.92844 5.42893C9.80381 3.55357 12.3473 2.5 14.9995 2.5C17.6517 2.5 20.1952 3.55357 22.0706 5.42893C23.9459 7.3043 24.9995 9.84784 24.9995 12.5Z" stroke="#2C3E50" stroke-width="1.875" stroke-linecap="round" stroke-linejoin="round"/>
<path d="M14.9995 16.25C17.0706 16.25 18.7495 14.5711 18.7495 12.5C18.7495 10.4289 17.0706 8.75 14.9995 8.75C12.9284 8.75 11.2495 10.4289 11.2495 12.5C11.2495 14.5711 12.9284 16.25 14.9995 16.25Z" stroke="#2C3E50" stroke-width="1.875" stroke-linecap="round" stroke-linejoin="round"/>
</svg>
