<svg width="34" height="34" viewBox="0 0 34 34" fill="none" xmlns="http://www.w3.org/2000/svg">
<path d="M29.9961 9.65091C30.7451 8.9021 31.166 7.88641 31.1661 6.82729C31.1662 5.76817 30.7456 4.75238 29.9968 4.00337C29.248 3.25437 28.2323 2.83351 27.1732 2.83337C26.114 2.83324 25.0983 3.25385 24.3492 4.00266L5.44242 22.9137C5.11349 23.2417 4.87024 23.6455 4.73408 24.0896L2.86266 30.2549C2.82605 30.3774 2.82329 30.5076 2.85466 30.6315C2.88604 30.7555 2.95039 30.8687 3.04088 30.959C3.13137 31.0493 3.24463 31.1135 3.36864 31.1447C3.49265 31.1759 3.62279 31.1729 3.74525 31.1361L9.912 29.2661C10.3557 29.1311 10.7594 28.8894 11.0878 28.562L29.9961 9.65091Z" stroke="#2C3E50" stroke-width="2.5" stroke-linecap="round" stroke-linejoin="round"/>
</svg>
