<svg width="36" height="33" viewBox="0 0 36 33" fill="none" xmlns="http://www.w3.org/2000/svg">
<path d="M17.9123 17.9122V31.2456M17.9123 17.9122L11.2457 24.5789M17.9123 17.9122L24.579 24.5789M4.57902 21.0772C3.34075 19.8121 2.40663 18.2817 1.84741 16.6021C1.28818 14.9225 1.11853 13.1376 1.35128 11.3827C1.58404 9.62782 2.21311 7.94889 3.19084 6.47312C4.16857 4.99734 5.46932 3.76342 6.99457 2.86481C8.51982 1.9662 10.2296 1.42648 11.9943 1.28652C13.759 1.14656 15.5325 1.41004 17.1803 2.05699C18.8281 2.70394 20.3071 3.71741 21.5052 5.02062C22.7034 6.32383 23.5892 7.88261 24.0957 9.57889H27.079C28.6882 9.57871 30.2548 10.0961 31.5473 11.0546C32.8399 12.0132 33.7899 13.362 34.257 14.9019C34.7241 16.4418 34.6835 18.0911 34.1412 19.6062C33.599 21.1213 32.5838 22.4217 31.2457 23.3156" stroke="#888888" stroke-width="2.5" stroke-linecap="round" stroke-linejoin="round"/>
</svg>
