<svg width="10" height="12" viewBox="0 0 10 12" fill="none" xmlns="http://www.w3.org/2000/svg">
<path d="M0 3.84375H1.19531V0H2.78125L4.66406 3.84375H7.40625V0H8.58594V3.84375H9.80469V4.94531H8.58594V6.00781H9.80469V7.10156H8.58594V11.2031H7.07031L5.03125 7.10156H2.375V11.2031H1.19531V7.10156H0V6.00781H1.19531V4.94531H0V3.84375ZM5.73438 6.00781H7.40625V4.94531H5.21094L5.73438 6.00781ZM2.375 6.00781H4.49219L3.96094 4.94531H2.375V6.00781ZM7.4375 9.47656H7.46094C7.42448 9.22135 7.40625 8.67708 7.40625 7.84375V7.10156H6.26562L7.4375 9.47656ZM2.35938 1.64062H2.32031C2.35677 1.88021 2.375 2.38542 2.375 3.15625V3.84375H3.41406L2.66406 2.32812C2.52344 2.04167 2.42188 1.8125 2.35938 1.64062Z" fill="#B3B3B3"/>
</svg>
